<svg viewBox="0 0 500 600" xmlns="http://www.w3.org/2000/svg">
  <defs>
    <linearGradient id="bodyGrad" x1="0%" y1="0%" x2="0%" y2="100%">
      <stop offset="0%" style="stop-color:#f8f0ff" />
      <stop offset="100%" style="stop-color:#e0ccff" />
    </linearGradient>
    <linearGradient id="purpleGrad" x1="0%" y1="0%" x2="0%" y2="100%">
      <stop offset="0%" style="stop-color:#9d50bb" />
      <stop offset="100%" style="stop-color:#6e48aa" />
    </linearGradient>
    <linearGradient id="heartGrad" x1="0%" y1="0%" x2="0%" y2="100%">
      <stop offset="0%" style="stop-color:#ff9a8b" />
      <stop offset="100%" style="stop-color:#ff6a88" />
    </linearGradient>
  </defs>

  <g transform="translate(250, 280) scale(1.2) translate(-250, -250)">
    
    <path d="M250 140 Q230 100 210 115 Q210 140 250 140 Z" fill="#8bc34a" />
    <path d="M250 140 Q270 100 290 115 Q290 140 250 140 Z" fill="#aed581" />
    <rect x="248" y="135" width="4" height="15" fill="#689f38" />

    <path d="M170 230 A90 90 0 0 1 330 230" stroke="#9d50bb" stroke-width="25" fill="none" stroke-linecap="round" />

    <rect x="150" y="180" width="200" height="160" rx="80" fill="url(#purpleGrad)" />
    
    <rect x="165" y="195" width="170" height="130" rx="65" fill="white" />
    
    <circle cx="210" cy="250" r="14" fill="#3a1c5e" />
    <circle cx="290" cy="250" r="14" fill="#3a1c5e" />
    <circle cx="214" cy="244" r="5" fill="white" />
    <circle cx="294" cy="244" r="5" fill="white" />

    <path d="M235 275 Q250 288 265 275" stroke="#3a1c5e" stroke-width="4" fill="none" stroke-linecap="round" />

    <circle cx="145" cy="260" r="28" fill="url(#purpleGrad)" />
    <circle cx="355" cy="260" r="28" fill="url(#purpleGrad)" />
    <path d="M145 285 Q150 330 185 330" stroke="#3a1c5e" stroke-width="5" fill="none" />
    <circle cx="190" cy="330" r="7" fill="#3a1c5e" />

    <path d="M250 395 C250 395 210 360 210 335 C210 315 230 315 250 335 C270 315 290 315 290 335 C290 360 250 395 250 395 Z" fill="url(#heartGrad)" />

    <text x="250" y="485" text-anchor="middle" font-family="Brush Script MT, cursive, Arial" font-size="100" font-weight="bold" fill="#7a44bb">Dost Ai</text>
    
    <text x="250" y="530" text-anchor="middle" font-family="Arial, sans-serif" font-size="16" letter-spacing="1" font-weight="bold" fill="#ff8a80">MENTAL HEALTH COMPANION CHATBOT</text>
    
    <path d="M130 525 Q135 520 140 525 Q135 530 130 525" fill="#ff8a80" />
    <path d="M360 525 Q365 520 370 525 Q365 530 360 525" fill="#ff8a80" />
  </g>
</svg>